ffmpeg started on 2016-11-25 at 14:58:27
Report written to "Output/NVENCh264/results/ffmpeg/sintelbd1000k.log"
Command line:
Tools/ffmpeg/ffmpeg -benchmark -y -i Input/y4m/sintel.y4m -c:v h264_nvenc -preset bd -b:v 1000k -an Output/NVENCh264/encoded/sintelbd1000k.mkv
ffmpeg version N-82227-gdb23fde Copyright (c) 2000-2016 the FFmpeg developers
  built with gcc 5.4.0 (Ubuntu 5.4.0-6ubuntu1~16.04.2) 20160609
  configuration: --prefix=/home/jaroslav/ffmpeg_build --pkg-config-flags=--static --extra-cflags=-I/home/jaroslav/ffmpeg_build/include --extra-ldflags=-L/home/jaroslav/ffmpeg_build/lib --bindir=/home/jaroslav/bin --enable-gpl --enable-libass --enable-libfdk-aac --enable-libfreetype --enable-libmp3lame --enable-libopus --enable-libtheora --enable-libvorbis --enable-libvpx --enable-libx264 --enable-libx265 --enable-nvenc --enable-libmfx --enable-libxvid --enable-libgsm --enable-libopencore-amrnb --enable-version3 --enable-nonfree
  libavutil      55. 35.100 / 55. 35.100
  libavcodec     57. 66.101 / 57. 66.101
  libavformat    57. 57.100 / 57. 57.100
  libavdevice    57.  2.100 / 57.  2.100
  libavfilter     6. 66.100 /  6. 66.100
  libswscale      4.  3.100 /  4.  3.100
  libswresample   2.  4.100 /  2.  4.100
  libpostproc    54.  2.100 / 54.  2.100
Input #0, yuv4mpegpipe, from 'Input/y4m/sintel.y4m':
  Duration: 00:00:20.83, start: 0.000000, bitrate: 2057307 kb/s
    Stream #0:0: Video: rawvideo (I420 / 0x30323449), yuv420p(progressive), 4096x1744, SAR 1:1 DAR 256:109, 24 fps, 24 tbr, 24 tbn, 24 tbc
Output #0, matroska, to 'Output/NVENCh264/encoded/sintelbd1000k.mkv':
  Metadata:
    encoder         : Lavf57.57.100
    Stream #0:0: Video: h264 (h264_nvenc) (Main) (H264 / 0x34363248), yuv420p, 4096x1744 [SAR 1:1 DAR 256:109], q=-1--1, 1000 kb/s, 24 fps, 1k tbn, 24 tbc
    Metadata:
      encoder         : Lavc57.66.101 h264_nvenc
    Side data:
      cpb: bitrate max/min/avg: 0/0/1000000 buffer size: 2000000 vbv_delay: -1
Stream mapping:
  Stream #0:0 -> #0:0 (rawvideo (native) -> h264 (h264_nvenc))
Press [q] to stop, [?] for help
frame=   17 fps=0.0 q=0.0 size=       0kB time=00:00:00.00 bitrate=N/A speed=   0x    frame=   37 fps= 36 q=49.0 size=       1kB time=00:00:00.25 bitrate=  23.8kbits/s speed=0.247x    frame=   57 fps= 37 q=49.0 size=       1kB time=00:00:01.08 bitrate=   5.5kbits/s speed=0.708x    frame=   78 fps= 38 q=49.0 size=       1kB time=00:00:01.95 bitrate=   3.0kbits/s speed=0.961x    frame=   99 fps= 39 q=49.0 size=       1kB time=00:00:02.83 bitrate=   2.1kbits/s speed=1.11x    frame=  120 fps= 39 q=49.0 size=       1kB time=00:00:03.70 bitrate=   1.6kbits/s speed=1.21x    frame=  141 fps= 39 q=49.0 size=       1kB time=00:00:04.58 bitrate=   1.3kbits/s speed=1.28x    frame=  162 fps= 35 q=49.0 size=    1297kB time=00:00:05.45 bitrate=1946.7kbits/s speed=1.18x    frame=  163 fps= 21 q=49.0 size=    1297kB time=00:00:05.50 bitrate=1931.8kbits/s speed=0.694x    frame=  164 fps= 14 q=49.0 size=    1297kB time=00:00:05.54 bitrate=1917.2kbits/s speed=0.489x    frame=  165 fps= 13 q=49.0 size=    1297kB time=00:00:05.58 bitrate=1903.1kbits/s speed=0.453x    frame=  186 fps= 14 q=49.0 size=    1297kB time=00:00:06.45 bitrate=1645.3kbits/s speed=0.503x    frame=  207 fps= 16 q=49.0 size=    1297kB time=00:00:07.33 bitrate=1449.0kbits/s speed=0.55x    frame=  228 fps= 16 q=49.0 size=    1297kB time=00:00:08.20 bitrate=1294.5kbits/s speed=0.593x    frame=  249 fps= 17 q=49.0 size=    1297kB time=00:00:09.08 bitrate=1169.8kbits/s speed=0.633x    frame=  270 fps= 18 q=49.0 size=    2672kB time=00:00:09.95 bitrate=2197.7kbits/s speed=0.67x    frame=  291 fps= 19 q=49.0 size=    2672kB time=00:00:10.83 bitrate=2020.2kbits/s speed=0.704x    frame=  310 fps= 19 q=49.0 size=    2892kB time=00:00:11.62 bitrate=2038.0kbits/s speed=0.731x    frame=  331 fps= 20 q=49.0 size=    2892kB time=00:00:12.50 bitrate=1895.3kbits/s speed=0.762x    frame=  352 fps= 21 q=49.0 size=    2892kB time=00:00:13.37 bitrate=1771.3kbits/s speed=0.791x    frame=  373 fps= 21 q=49.0 size=    2892kB time=00:00:14.25 bitrate=1662.6kbits/s speed=0.818x    frame=  394 fps= 22 q=49.0 size=    2892kB time=00:00:15.12 bitrate=1566.4kbits/s speed=0.843x    frame=  415 fps= 23 q=49.0 size=    2892kB time=00:00:16.00 bitrate=1480.8kbits/s speed=0.868x    frame=  436 fps= 23 q=49.0 size=    3544kB time=00:00:16.87 bitrate=1720.4kbits/s speed=0.89x    frame=  457 fps= 23 q=49.0 size=    3749kB time=00:00:17.75 bitrate=1730.1kbits/s speed=0.912x    frame=  478 fps= 24 q=49.0 size=    3749kB time=00:00:18.62 bitrate=1648.8kbits/s speed=0.933x    frame=  499 fps= 24 q=49.0 size=    3749kB time=00:00:19.50 bitrate=1574.9kbits/s speed=0.952x    frame=  500 fps= 24 q=49.0 Lsize=    4220kB time=00:00:20.79 bitrate=1662.5kbits/s speed=1.01x    
video:4215kB audio:0kB subtitle:0kB other streams:0kB global headers:0kB muxing overhead: 0.103368%
bench: utime=0.884s
bench: maxrss=1196132kB
